<svg width="195" height="61" viewBox="0 0 195 61" fill="none" xmlns="http://www.w3.org/2000/svg">
<g clip-path="url(#clip0_146_1657)">
<path d="M14.8407 18.2995C14.9304 18.3332 14.9304 18.3332 15.0215 18.3669C15.9126 18.7354 16.5153 19.3994 17.1185 20.0787C17.1965 20.1651 17.2739 20.2515 17.3519 20.3379C17.6397 20.6582 17.9262 20.9797 18.2119 21.3018C18.4901 21.6157 18.7697 21.9284 19.0513 22.2391C19.0823 22.2734 19.1127 22.3077 19.1452 22.3427C19.6132 22.8567 20.0391 23.21 20.777 23.3193C21.0758 23.3301 21.3727 23.318 21.6715 23.306C21.7661 23.3021 21.8607 23.299 21.9559 23.2958C22.299 23.2837 22.6427 23.2697 22.9858 23.2558C23.128 23.25 23.2702 23.2443 23.4124 23.2386C24.4878 23.1954 25.5626 23.1503 26.6373 23.1039C27.3303 23.0747 28.024 23.0448 28.7171 23.0156C28.958 23.0054 29.1982 22.9952 29.4384 22.9851C29.5847 22.9787 29.7311 22.9724 29.8774 22.966C29.9437 22.9635 30.0099 22.9603 30.0783 22.9577C30.1397 22.9552 30.2005 22.952 30.264 22.9495C30.3433 22.9463 30.3433 22.9463 30.4241 22.9431C30.5905 22.9374 30.7568 22.9374 30.9239 22.938C30.8811 23.182 30.8017 23.4038 30.7119 23.6351C30.1508 25.0959 30.0058 26.701 30.4407 28.212C30.46 28.2794 30.46 28.2794 30.48 28.3486C31.1454 30.5605 32.7068 32.1211 34.8239 33.2477C36.5716 34.1551 38.4471 34.5814 40.4357 34.0782C42.5942 33.4752 43.9706 32.2158 45.0522 30.4302C45.3 30.021 45.5602 29.6188 45.8205 29.2166C46.1863 28.6511 46.5473 28.0837 46.9035 27.513C47.3004 26.8764 47.7049 26.2441 48.1129 25.6138C48.4269 25.1264 48.7368 24.6365 49.0433 24.1453C49.4402 23.5099 49.844 22.8783 50.2513 22.248C50.624 21.671 50.9899 21.0903 51.3523 20.5076C51.5442 20.1994 51.7374 19.8925 51.9335 19.5862C51.9666 19.5341 51.9997 19.482 52.0342 19.4286C52.0612 19.3912 52.0874 19.3543 52.115 19.3162C52.1378 19.3162 52.1606 19.3162 52.184 19.3162C52.1985 20.0075 52.1523 20.6912 52.1019 21.3806C52.0929 21.5039 52.0839 21.6272 52.075 21.7498C52.0563 22.0135 52.037 22.2766 52.0177 22.5403C51.9873 22.9571 51.9576 23.3739 51.9273 23.7908C51.8693 24.6003 51.8106 25.4098 51.7519 26.2193C51.6767 27.2506 51.6021 28.2813 51.5283 29.3125C51.4986 29.7268 51.4682 30.1405 51.4379 30.5548C51.4192 30.8121 51.4006 31.0701 51.3819 31.3281C51.3737 31.4469 51.3647 31.5664 51.3564 31.6852C51.2515 32.8035 51.2515 32.8035 51.422 33.9047C51.4365 33.9555 51.451 34.007 51.4662 34.0591C51.5145 34.2288 51.5642 34.3978 51.6139 34.5668C51.6491 34.6888 51.6843 34.8108 51.7188 34.9334C51.7947 35.1959 51.8707 35.4583 51.9473 35.7207C52.0695 36.1414 52.1909 36.562 52.3117 36.9833C52.4394 37.4249 52.5664 37.8659 52.6941 38.3075C52.9841 39.3108 53.2719 40.3142 53.557 41.3187C53.5763 41.3867 53.5956 41.4541 53.6156 41.524C53.7123 41.8652 53.8096 42.2058 53.9062 42.5464C54.0988 43.2244 54.2921 43.9024 54.4847 44.5797C54.504 44.6464 54.5227 44.7131 54.542 44.7818C55.0666 46.6213 55.5933 48.4596 56.1206 50.2985C56.1993 50.571 56.2773 50.8443 56.3553 51.1169C56.3843 51.2179 56.4133 51.3196 56.4423 51.4206C56.4561 51.4683 56.4692 51.5166 56.4837 51.5661C56.5686 51.8616 56.6542 52.1564 56.7419 52.4512C56.7619 52.5205 56.7826 52.5898 56.8033 52.6609C56.8392 52.7829 56.8751 52.9056 56.9124 53.0276C56.9275 53.079 56.9427 53.1305 56.9579 53.1839C56.9772 53.2493 56.9772 53.2493 56.9973 53.3161C57.0193 53.4597 56.9979 53.5556 56.9469 53.6922C56.8592 53.7913 56.8592 53.7913 56.7474 53.8873C56.706 53.9229 56.6645 53.9585 56.6217 53.9953C56.5541 54.0519 56.5541 54.0519 56.4851 54.1091C56.4388 54.1484 56.3919 54.1878 56.3436 54.2285C55.9356 54.5691 55.5111 54.8855 55.0728 55.1912C54.9389 55.2852 54.8064 55.3805 54.6745 55.4765C50.6917 58.3498 45.924 60.1315 40.9327 60.8089C40.8595 60.8197 40.7864 60.8299 40.7111 60.8407C38.0847 61.2054 35.2691 61.1361 32.6495 60.7453C32.6033 60.7384 32.5577 60.732 32.5101 60.725C30.8003 60.4708 29.1374 60.0629 27.4988 59.5501C27.4221 59.526 27.3462 59.5025 27.2675 59.4783C27.1978 59.4554 27.1281 59.4332 27.0556 59.4097C26.9942 59.39 26.9327 59.3703 26.8699 59.35C26.7105 59.2826 26.62 59.2146 26.5062 59.0933C26.531 59.0551 26.5552 59.017 26.5807 58.9776C27.0839 58.1935 27.574 57.4043 28.042 56.6018C28.314 56.136 28.5949 55.6754 28.8814 55.2172C29.1499 54.787 29.4142 54.3556 29.6772 53.9222C30.1728 53.1064 30.6726 52.2924 31.1724 51.4791C31.2842 51.298 31.3953 51.1169 31.5064 50.9358C31.543 50.8767 31.5796 50.817 31.6176 50.7553C31.8564 50.3658 32.0945 49.9757 32.3306 49.5842C32.4134 49.4483 32.497 49.3136 32.5819 49.1789C32.7689 48.8802 32.9387 48.5936 33.0651 48.2683C33.306 47.6945 33.306 47.6945 33.6159 47.5287C34.1916 47.4238 34.7873 47.4797 35.3699 47.5141C36.5606 47.5776 37.6657 47.0693 38.5416 46.3557C38.953 45.9916 39.2754 45.6885 39.2947 45.1414C39.254 44.8015 39.0918 44.5683 38.8405 44.3236C38.5499 44.168 38.3276 44.1273 37.9963 44.1985C37.6505 44.3027 37.3675 44.4336 37.0755 44.6337C36.2002 45.2247 35.2497 45.3098 34.2026 45.1738C33.4385 45.062 32.6985 44.8771 31.9593 44.6693C31.8757 44.6464 31.8757 44.6464 31.7901 44.6229C29.8063 44.0663 27.8687 43.1094 26.2728 41.8944C23.7693 39.9977 21.004 38.4613 17.9082 37.5329C17.8164 37.505 17.8164 37.505 17.7232 37.477C16.1204 37.0176 14.4665 36.7673 12.8147 36.5099C12.3978 36.4451 11.9816 36.3797 11.5654 36.3136C10.4575 36.1382 9.3496 35.9641 8.24173 35.7906C7.51005 35.6762 6.77905 35.5612 6.04737 35.4456C5.63459 35.3795 5.22112 35.3153 4.80766 35.2512C4.55088 35.2111 4.29341 35.1705 4.03663 35.1292C3.9179 35.1107 3.79987 35.0923 3.68114 35.0739C2.77068 34.9347 1.74633 34.7663 1.13682 34.0636C0.727496 33.498 0.673655 32.8957 0.806185 32.2367C0.855885 32.0379 0.908345 31.8402 0.966328 31.6433C1.38601 31.7456 1.80293 31.8542 2.21847 31.9711C6.76111 33.2477 14.7854 35.4856 19.3274 33.6766C19.3743 33.6588 19.4206 33.6404 19.4689 33.6219C20.5423 33.1988 21.2836 32.5729 21.7413 31.5721C22.1533 30.5135 22.1168 29.479 21.6011 28.4541C21.0862 27.5683 20.2834 26.9602 19.2584 26.6235C18.7559 26.504 18.2416 26.4602 17.7267 26.4112C15.0885 26.1533 4.37555 24.9676 2.83004 23.3193C3.25042 22.1984 3.87994 21.3419 5.03889 20.7776C6.07153 20.3659 7.21599 20.3081 8.28038 20.6582C8.52681 20.7236 8.71801 20.7401 8.97341 20.7141C9.21293 20.5514 9.33304 20.3405 9.47385 20.1028C10.0606 19.1624 10.8123 18.5225 11.9416 18.1724C12.0506 18.1375 12.0506 18.1375 12.1617 18.1019C13.0301 17.9144 14.0234 17.9735 14.8407 18.2995Z" fill="#4B6BFB"/>
<path d="M42.8654 6.29102C47.9755 7.28036 52.6458 9.46429 56.5065 12.6986C56.6155 12.7894 56.7246 12.8797 56.835 12.9692C57.4597 13.4776 58.0706 14.0132 58.6097 14.5997C58.716 14.7147 58.8244 14.8278 58.9334 14.9403C62.7402 18.8799 65.1721 23.8984 66.0411 29.0904C66.0618 29.213 66.0618 29.213 66.0825 29.3382C66.2965 30.6783 66.36 32.0051 66.3559 33.3598C66.3559 33.4837 66.3559 33.4837 66.3559 33.6108C66.3524 34.8092 66.3276 35.9859 66.1274 37.1723C66.115 37.2472 66.1032 37.3229 66.0901 37.4004C65.3205 42.0567 63.3898 46.5065 60.2788 50.2593C60.1614 50.4042 60.0475 50.5491 59.935 50.6971C59.9033 50.7384 59.8722 50.7797 59.8398 50.8223C59.779 50.9023 59.7183 50.9837 59.6575 51.0644C59.5857 51.1591 59.5091 51.2512 59.4318 51.3421C59.3862 51.3421 59.3407 51.3421 59.2938 51.3421C59.282 51.3008 59.2703 51.2601 59.2579 51.2175C58.4744 48.4878 57.6771 45.7606 56.8709 43.0365C56.8033 42.8084 56.7356 42.5803 56.668 42.3522C55.9522 39.9338 55.2357 37.5154 54.5185 35.097C54.4778 34.9591 54.4377 34.8219 54.3984 34.684C54.3411 34.4972 54.2797 34.3135 54.2148 34.1293C53.909 33.2327 53.8745 32.4505 53.9387 31.5183C53.947 31.3715 53.9552 31.2248 53.9628 31.0773C53.9849 30.6834 54.0098 30.2894 54.0346 29.8948C54.0608 29.4799 54.0843 29.065 54.1078 28.6501C54.1478 27.9543 54.1892 27.2579 54.232 26.5621C54.2762 25.8485 54.3197 25.1349 54.3611 24.4214C54.3653 24.3553 54.3653 24.3553 54.3694 24.2879C54.3949 23.8495 54.4205 23.411 54.446 22.9726C54.4584 22.7585 54.4709 22.545 54.4833 22.3315C54.4881 22.2482 54.493 22.165 54.4985 22.0792C54.5275 21.5868 54.5565 21.0943 54.5868 20.6025C54.6055 20.2956 54.6241 19.9887 54.6421 19.6818C54.651 19.5401 54.6593 19.399 54.6683 19.258C54.7076 18.6308 54.7449 18.0043 54.7539 17.3765C54.7553 17.2945 54.7566 17.2119 54.758 17.128C54.7111 16.6 54.3942 16.1368 53.9739 15.7841C53.4596 15.441 52.8777 15.3197 52.253 15.3775C51.9866 15.4391 51.7429 15.5255 51.4937 15.6316C51.4496 15.6501 51.4054 15.6691 51.3605 15.6882C50.5018 16.1495 49.9641 17.5093 49.4906 18.2705C48.9487 19.1423 48.4055 20.0141 47.8485 20.8776C47.8139 20.9317 47.7794 20.985 47.7442 21.0403C47.7125 21.0892 47.6807 21.1375 47.6483 21.1877C47.6076 21.2513 47.6076 21.2513 47.5654 21.3161C47.4902 21.4139 47.4902 21.4139 47.3522 21.4775C47.1333 20.7563 46.9145 20.0344 46.6964 19.3132C46.6798 19.2573 46.6626 19.202 46.6453 19.1449C46.2319 17.7787 45.8191 16.4126 45.4097 15.0452C45.3925 14.9873 45.3752 14.9295 45.3573 14.8704C45.2013 14.3475 45.0446 13.8252 44.8886 13.3028C44.5379 12.1305 44.1873 10.9588 43.829 9.78835C43.7814 9.63331 43.7338 9.47827 43.6868 9.32259C43.5543 8.89051 43.4225 8.45779 43.2886 8.0257C43.2485 7.89544 43.2085 7.76455 43.1685 7.63365C43.1201 7.4767 43.0718 7.31976 43.0228 7.16217C43.0021 7.09355 42.9814 7.02492 42.9593 6.95376C42.9324 6.8648 42.9324 6.8648 42.9041 6.77393C42.8654 6.60745 42.8578 6.46067 42.8654 6.29102Z" fill="#4B6BFB"/>
<path d="M8.14506 37.9336C8.66138 37.9711 9.16251 38.0473 9.66986 38.1407C9.74924 38.1547 9.82793 38.1693 9.90938 38.1839C10.0764 38.2144 10.2435 38.2456 10.4105 38.2761C10.6597 38.3218 10.9089 38.3669 11.1581 38.4114C12.6118 38.6764 14.051 38.9954 15.4488 39.451C15.5323 39.4777 15.6158 39.5043 15.7014 39.5323C16.4421 39.7744 17.1634 40.047 17.8778 40.3482C17.9399 40.3742 18.0027 40.4003 18.0669 40.427C19.1265 40.8692 20.1267 41.3833 21.1221 41.9367C21.1925 41.9755 21.2636 42.0149 21.336 42.0549C22.3162 42.5963 23.2764 43.1332 24.1647 43.7979C24.9882 44.4098 25.8607 44.9543 26.7822 45.4315C26.8305 45.4569 26.8796 45.4823 26.9293 45.5084C28.0496 46.0892 29.2341 46.4914 30.4406 46.893C30.4013 47.1217 30.3371 47.2907 30.2101 47.4896C30.1756 47.5443 30.1411 47.5989 30.1059 47.6548C30.0686 47.7139 30.0306 47.773 29.992 47.834C29.6047 48.4523 29.2361 49.0775 28.8744 49.7085C28.4934 50.3731 28.1068 51.0346 27.7072 51.6904C27.5215 51.996 27.3386 52.3023 27.1557 52.6079C27.0839 52.7274 27.0128 52.8462 26.9417 52.965C26.7491 53.2859 26.5572 53.6068 26.3653 53.9277C25.8814 54.7353 25.3976 55.5429 24.9116 56.3499C24.8481 56.4554 24.7846 56.5615 24.7204 56.6669C24.4478 57.1194 24.1682 57.5673 23.8831 58.0128C23.6484 57.9441 23.4262 57.8749 23.2101 57.7656C23.1632 57.7421 23.1162 57.7179 23.0679 57.6938C23.0182 57.6677 22.9678 57.6423 22.9167 57.6156C22.8636 57.5883 22.8098 57.5603 22.7545 57.5317C21.6715 56.9656 20.6409 56.3416 19.6649 55.6287C19.54 55.5384 19.4136 55.4501 19.2866 55.3618C18.8821 55.0809 18.4928 54.7906 18.1201 54.4735C17.9765 54.3521 17.8309 54.2339 17.6845 54.1164C16.9225 53.5038 16.2018 52.8633 15.5309 52.1669C15.4529 52.0894 15.4529 52.0894 15.3728 52.01C14.9704 51.6078 14.6046 51.1833 14.2422 50.7506C14.16 50.6534 14.0765 50.5574 13.9923 50.4615C12.9997 49.3158 12.1479 48.052 11.3893 46.7659C11.3582 46.7138 11.3265 46.6617 11.2941 46.6077C9.84104 44.1861 8.10986 40.7669 8.14506 37.9336Z" fill="#4B6BFB"/>
<path d="M76.0674 41.9451C77.5936 41.9451 79.1197 41.9451 80.6922 41.9451C81.0338 42.3537 81.0338 42.3537 81.3824 42.7712C81.5419 42.9605 81.7013 43.1499 81.8615 43.3392C81.9022 43.3875 81.9429 43.4358 81.985 43.4854C82.3274 43.8908 82.6718 44.2943 83.0163 44.6971C83.2054 44.9182 83.3946 45.14 83.583 45.3611C83.739 45.5435 83.8943 45.7252 84.0496 45.9076C84.4465 46.3708 84.8407 46.8359 85.2334 47.3023C85.5192 47.6404 85.8063 47.9778 86.0949 48.3139C86.324 48.5814 86.5442 48.8527 86.7665 49.1253C86.7893 46.7559 86.8121 44.3864 86.8355 41.9451C87.6197 41.9439 88.4045 41.9426 89.2128 41.9413C89.4606 41.9407 89.7084 41.94 89.9645 41.9394C90.2661 41.9394 90.2661 41.9394 90.4076 41.9388C90.5064 41.9388 90.6058 41.9388 90.7045 41.9381C90.8542 41.9381 91.0033 41.9381 91.1531 41.9381C91.238 41.9375 91.3222 41.9375 91.4092 41.9375C91.5984 41.9451 91.5984 41.9451 91.6674 42.0087C91.6736 42.1917 91.6743 42.3734 91.6729 42.5564C91.6729 42.6149 91.6729 42.6733 91.6722 42.733C91.6715 42.9294 91.6701 43.1257 91.6688 43.3227C91.6681 43.4625 91.6674 43.6029 91.6667 43.7434C91.6653 44.1252 91.6625 44.5071 91.6605 44.889C91.6584 45.2881 91.6563 45.6865 91.6543 46.0855C91.6508 46.7552 91.6467 47.425 91.6432 48.0947C91.6391 48.7848 91.6349 49.4742 91.6315 50.1642C91.6315 50.2068 91.6315 50.2494 91.6308 50.2932C91.6301 50.5061 91.6287 50.7196 91.6273 50.9325C91.6184 52.7027 91.6087 54.4724 91.5984 56.242C91.0165 56.2598 90.4346 56.2731 89.852 56.2814C89.5814 56.2852 89.3115 56.2909 89.0409 56.2998C88.78 56.3081 88.5184 56.3125 88.2568 56.3144C88.1574 56.3157 88.0587 56.3183 87.9593 56.3227C87.2048 56.3526 87.2048 56.3526 86.9329 56.167C86.703 55.9618 86.5277 55.726 86.3523 55.4795C86.2895 55.4045 86.2253 55.3295 86.1604 55.2558C86.1114 55.1961 86.0624 55.1357 86.0113 55.0741C85.9541 55.0048 85.8961 54.9349 85.8381 54.8651C85.7946 54.8129 85.7946 54.8129 85.7504 54.7596C85.602 54.581 85.4509 54.405 85.2997 54.2284C85.0049 53.884 84.7116 53.5383 84.4196 53.192C84.0075 52.7034 83.5927 52.2166 83.1771 51.7305C82.5994 51.0551 82.0244 50.3765 81.4515 49.6972C81.292 49.5085 81.1326 49.3198 80.9683 49.1253C80.9455 51.4738 80.9227 53.8223 80.8992 56.242C79.3047 56.242 77.7102 56.242 76.0674 56.242C76.0674 51.524 76.0674 46.8061 76.0674 41.9451Z" fill="#4B6BFB"/>
<path d="M127.266 25.0355C128.858 26.3515 129.741 28.1694 129.908 30.1182C130.013 32.0766 129.385 34.0279 127.967 35.5104C126.382 37.1097 124.266 38.0158 121.917 38.134C119.415 38.2141 117.159 37.5678 115.254 36.0632C114.95 35.7988 114.697 35.5085 114.446 35.2016C114.377 35.124 114.377 35.124 114.307 35.0446C112.972 33.4796 112.591 31.4253 112.811 29.4872C113.029 28.1065 113.697 26.8083 114.653 25.7338C114.701 25.6798 114.748 25.6258 114.797 25.5699C116.123 24.1326 118.166 23.3078 120.173 23.0829C122.782 22.8872 125.269 23.4349 127.266 25.0355ZM118.449 28.4661C117.787 29.2344 117.575 30.1112 117.69 31.0713C117.844 31.8313 118.255 32.6262 118.933 33.1047C119.911 33.7083 120.892 33.9237 122.062 33.7744C123.074 33.5673 123.928 32.9967 124.491 32.196C124.931 31.4545 124.997 30.5891 124.821 29.7668C124.535 28.9084 123.972 28.2012 123.138 27.7379C121.536 26.9596 119.68 27.243 118.449 28.4661Z" fill="#4B6BFB"/>
<path d="M105.058 23.3191C105.127 23.3362 105.127 23.3362 105.197 23.354C107.269 23.8859 109.017 25.158 110.084 26.8698C110.543 27.6348 110.835 28.4297 110.995 29.292C111.007 29.3575 111.02 29.4235 111.033 29.4909C111.285 31.5223 110.807 33.5321 109.426 35.1525C109.374 35.2109 109.322 35.2687 109.269 35.3285C109.221 35.3825 109.173 35.4365 109.123 35.4924C107.921 36.7791 106.302 37.5842 104.506 37.9337C104.448 37.9451 104.39 37.9565 104.33 37.968C103.734 38.0722 103.144 38.0862 102.539 38.0849C102.462 38.0843 102.462 38.0843 102.382 38.0843C101.544 38.0817 100.759 38.0233 99.9505 37.8066C99.8973 37.7932 99.8449 37.7793 99.7903 37.7653C98.6838 37.4749 97.7333 37.0212 96.8443 36.3451C96.7759 36.2937 96.7083 36.2422 96.6379 36.1895C95.0151 34.8945 94.1357 33.081 93.9452 31.1347C93.7843 28.9902 94.5595 27.0585 96.0774 25.442C98.24 23.2034 101.994 22.5032 105.058 23.3191ZM100.227 27.8941C100.182 27.9221 100.139 27.95 100.093 27.9786C99.4038 28.4672 98.9972 29.3041 98.8681 30.0793C98.7439 31.021 99.0683 31.8737 99.6661 32.6343C100.25 33.285 101.126 33.6586 102.023 33.7876C103.058 33.8689 104.029 33.6243 104.851 33.041C105.693 32.3801 105.997 31.61 106.118 30.6188C106.147 29.7927 105.814 28.9565 105.248 28.3192C104.655 27.7422 103.778 27.2657 102.897 27.2434C101.885 27.2231 101.073 27.3464 100.227 27.8941Z" fill="#4B6BFB"/>
<path d="M84.191 23.0377C84.249 23.0377 84.3063 23.0383 84.3656 23.0383C85.2353 23.0428 86.0685 23.0783 86.9044 23.3198C86.9527 23.3331 87.001 23.3471 87.0514 23.3611C88.7239 23.8472 90.1411 24.86 91.046 26.2427C90.7844 26.4505 90.4814 26.5598 90.168 26.6843C90.1079 26.7078 90.0486 26.732 89.9871 26.7568C89.7966 26.833 89.6061 26.9093 89.4156 26.9849C89.2285 27.0599 89.0422 27.1348 88.8558 27.2098C88.7329 27.2587 88.6094 27.3083 88.4858 27.3572C88.1821 27.478 87.8798 27.6019 87.5802 27.7315C87.5236 27.7563 87.467 27.7804 87.4083 27.8052C87.3013 27.8516 87.1943 27.898 87.0887 27.9456C86.7367 28.0956 86.7367 28.0956 86.531 28.0409C86.4136 27.9526 86.3356 27.8656 86.2487 27.7518C85.9346 27.3973 85.3934 27.1431 84.9026 27.0688C83.8735 27.0173 82.9982 27.1043 82.1975 27.7658C81.3229 28.6103 81.073 29.7312 81.091 30.8635C81.1269 31.7638 81.3947 32.6318 82.0726 33.2958C82.7545 33.8709 83.6056 34.0914 84.5202 34.0698C85.2298 34.0221 85.9291 33.8677 86.4212 33.3594C86.6166 33.097 86.7953 32.8358 86.9044 32.5333C86.8658 32.5327 86.8271 32.5321 86.7871 32.5314C86.3853 32.5244 85.9829 32.5168 85.5812 32.5098C85.4314 32.5067 85.2809 32.5041 85.1304 32.5016C84.9151 32.4978 84.6997 32.4939 84.4843 32.4895C84.4167 32.4889 84.3497 32.4876 84.28 32.4863C84.2179 32.485 84.1558 32.4838 84.0916 32.4825C84.0364 32.4819 83.9811 32.4806 83.9245 32.48C83.7982 32.4698 83.7982 32.4698 83.7292 32.4063C83.7292 31.3788 83.7292 30.3513 83.7292 29.2927C86.5538 29.2927 89.3783 29.2927 92.2885 29.2927C92.2885 31.9951 91.9309 34.221 89.8028 36.2219C88.093 37.7152 85.733 38.1199 83.4593 38.0697C81.3906 37.9858 79.4337 37.1318 78.0179 35.7549C77.1385 34.8602 76.6022 33.7546 76.2743 32.5969C76.2522 32.5194 76.2301 32.4418 76.2074 32.3618C75.7124 30.2643 76.1259 28.0054 77.3187 26.1728C78.3644 24.6777 80.0024 23.6731 81.8655 23.2563C81.9745 23.2315 81.9745 23.2315 82.085 23.2061C82.7904 23.0599 83.4696 23.0326 84.191 23.0377Z" fill="#4B6BFB"/>
<path d="M132.255 23.3828C141.353 23.3828 141.353 23.3828 143.761 25.4956C145.261 26.9272 146.031 28.7584 146.02 30.7448C145.976 32.4585 145.288 34.0457 144.058 35.3286C144.024 35.3687 143.989 35.4087 143.954 35.45C142.887 36.6853 141.086 37.4262 139.434 37.6797C137.065 37.6797 134.696 37.6797 132.255 37.6797C132.255 32.9617 132.255 28.2438 132.255 23.3828ZM137.018 27.3859C137.018 29.5247 137.018 31.6636 137.018 33.8672C138.194 33.8672 139.192 33.7541 140.081 32.9973C140.816 32.2564 141.107 31.363 141.09 30.3724C141.002 29.5934 140.652 28.672 139.986 28.1484C139.059 27.4984 138.177 27.3859 137.018 27.3859Z" fill="#4B6BFB"/>
<path d="M35.566 5.77838C35.6799 5.77902 35.6799 5.77902 35.7958 5.78029C35.8787 5.78092 35.8787 5.78092 35.9629 5.78219C35.9705 6.17615 35.9456 6.54914 35.8842 6.93929C35.8759 6.99457 35.8676 7.05049 35.8593 7.10767C35.8324 7.28559 35.8048 7.46351 35.7772 7.64079C35.7606 7.75326 35.7434 7.86509 35.7261 7.97756C35.7178 8.03475 35.7088 8.0913 35.6999 8.15039C35.6612 8.40837 35.6219 8.66635 35.5832 8.92433C35.5591 9.08255 35.5349 9.24077 35.5107 9.39962C35.3306 10.5796 35.167 11.7608 35.0234 12.9452C35.0165 13.0056 35.0089 13.0666 35.0013 13.1289C34.9337 13.6906 34.866 14.2523 34.7998 14.814C34.7625 15.126 34.7252 15.438 34.6873 15.75C34.6728 15.8675 34.659 15.9851 34.6451 16.102C34.6265 16.264 34.6065 16.4261 34.5872 16.5881C34.5816 16.6357 34.5761 16.6834 34.5706 16.7323C34.5416 16.9611 34.5085 17.1498 34.3753 17.3468C34.1344 17.2203 33.8928 17.0939 33.6519 16.9668C33.5642 16.921 33.4772 16.8753 33.3902 16.8295C32.8332 16.5373 32.2782 16.2431 31.7239 15.947C31.3664 15.7557 31.0074 15.5657 30.6478 15.377C30.5898 15.3465 30.5319 15.316 30.4718 15.2842C29.0561 14.5452 27.5009 14.2434 25.8933 14.6158C24.0744 15.0936 22.9217 16.2462 22.0305 17.7185C21.8407 18.0343 21.6523 18.3507 21.4645 18.6672C21.1967 19.1202 20.9185 19.5688 20.639 20.0155C20.5934 20.0155 20.5479 20.0155 20.5009 20.0155C20.4077 19.91 20.3194 19.8008 20.2338 19.6902C18.7911 17.8742 16.9219 16.1929 14.4956 15.6312C14.6116 15.377 14.8 15.1813 14.9933 14.9754C15.0299 14.9366 15.0665 14.8979 15.1037 14.8572C15.4972 14.4429 15.9141 14.0521 16.3379 13.6645C16.4677 13.5457 16.5968 13.4263 16.7259 13.3068C17.2042 12.8658 17.6922 12.4592 18.223 12.0728C18.299 12.0137 18.3749 11.954 18.4501 11.893C22.93 8.29654 29.5613 5.71802 35.566 5.77838Z" fill="#4B6BFB"/>
<path d="M107.682 4.95703C116.572 4.95703 116.572 4.95703 118.118 6.27171C119.138 7.25851 119.469 8.57573 119.433 9.89994C119.377 11.0322 118.869 12.0604 117.983 12.8438C117.581 13.1552 117.126 13.3871 116.655 13.5987C116.705 13.6559 116.755 13.7124 116.807 13.7715C117.211 14.2328 117.606 14.6986 117.991 15.1745C118.375 15.6486 118.771 16.1143 119.167 16.5807C119.381 16.8336 119.593 17.0884 119.805 17.3426C119.917 17.4773 120.03 17.6114 120.142 17.7461C120.286 17.917 120.429 18.0892 120.572 18.2607C120.632 18.3319 120.69 18.4024 120.749 18.4723C120.837 18.5778 120.925 18.6833 121.012 18.7894C121.064 18.8511 121.116 18.9127 121.168 18.9769C121.28 19.1268 121.28 19.1268 121.28 19.2539C120.51 19.2806 119.741 19.3009 118.97 19.313C118.613 19.3194 118.255 19.327 117.898 19.3403C117.552 19.3524 117.207 19.3594 116.861 19.3626C116.73 19.3645 116.598 19.3689 116.467 19.3746C115.633 19.4128 115.633 19.4128 115.275 19.2539C114.954 18.9762 114.768 18.614 114.588 18.2493C114.484 18.0504 114.359 17.8725 114.226 17.6889C114.183 17.6266 114.139 17.5637 114.094 17.4995C114.029 17.4067 114.029 17.4067 113.963 17.3121C113.917 17.2454 113.87 17.1786 113.822 17.11C113.434 16.5527 113.043 15.9968 112.652 15.4414C112.596 15.6695 112.572 15.8824 112.568 16.1162C112.567 16.1867 112.565 16.2579 112.564 16.331C112.563 16.4047 112.562 16.4784 112.56 16.5547C112.559 16.6233 112.558 16.6913 112.557 16.7618C112.552 17.0166 112.548 17.2714 112.544 17.5262C112.534 18.0962 112.524 18.6668 112.513 19.2539C110.919 19.2539 109.324 19.2539 107.682 19.2539C107.682 14.5359 107.682 9.81797 107.682 4.95703ZM112.583 8.51536C112.52 9.3001 112.505 10.0798 112.513 10.8664C113.128 10.8982 113.721 10.9064 114.216 10.5239C114.492 10.2424 114.586 9.97682 114.58 9.6032C114.524 9.30201 114.399 9.0561 114.17 8.83307C113.777 8.60877 113.37 8.50583 112.91 8.51155C112.818 8.51219 112.818 8.51219 112.724 8.51282C112.677 8.51409 112.631 8.51473 112.583 8.51536Z" fill="#4B6BFB"/>
<path d="M76.0674 4.89258C77.7758 4.89258 79.4842 4.89258 81.2444 4.89258C81.555 5.46445 81.555 5.46445 81.6703 5.73705C81.6965 5.79805 81.7227 5.85968 81.7496 5.92322C81.7773 5.98867 81.8049 6.05412 81.8339 6.12147C81.878 6.22695 81.878 6.22695 81.9236 6.33434C81.9878 6.48493 82.052 6.63553 82.1155 6.78612C82.2163 7.02313 82.3164 7.26014 82.4171 7.49715C82.4516 7.57785 82.4862 7.65855 82.52 7.73861C82.5372 7.77864 82.5545 7.81931 82.5718 7.86061C82.6242 7.98324 82.676 8.10588 82.7284 8.22852C83.0501 8.98657 83.3738 9.74398 83.699 10.5014C83.7563 10.6355 83.8142 10.7695 83.8715 10.9036C83.9509 11.0898 84.0303 11.2753 84.1104 11.4609C84.1338 11.5162 84.1573 11.5714 84.1815 11.628C84.2691 11.8682 84.2691 11.8682 84.4196 12.0728C84.4348 12.0378 84.45 12.0035 84.4652 11.9679C84.8331 11.1228 85.2017 10.2777 85.5696 9.43327C85.7477 9.02469 85.9258 8.61612 86.1038 8.20755C86.2757 7.81295 86.4476 7.41899 86.6195 7.0244C86.685 6.87444 86.7506 6.72385 86.8162 6.57326C86.908 6.3623 86.9998 6.15197 87.0916 5.94102C87.1185 5.87874 87.1455 5.81711 87.1738 5.75293C87.1986 5.69511 87.2241 5.63729 87.2504 5.57756C87.2828 5.50321 87.2828 5.50321 87.316 5.42696C87.4009 5.24523 87.4989 5.06922 87.5948 4.89258C89.3032 4.89258 91.0116 4.89258 92.7718 4.89258C92.7076 5.18868 92.6075 5.4384 92.4784 5.71227C92.455 5.76183 92.4322 5.81139 92.4087 5.86222C92.359 5.96897 92.3093 6.07572 92.2596 6.18184C92.152 6.41122 92.0456 6.64124 91.9387 6.87063C91.8834 6.98945 91.8282 7.10828 91.773 7.2271C91.5307 7.74878 91.2912 8.27109 91.0524 8.7934C90.9392 9.04185 90.8253 9.2903 90.7121 9.53811C90.6893 9.58894 90.6658 9.63914 90.6423 9.69124C90.3531 10.3235 90.0632 10.9557 89.7733 11.5886C89.7457 11.6483 89.7181 11.7087 89.6898 11.7703C89.2756 12.6745 88.8587 13.5781 88.4418 14.481C88.0097 15.4157 87.5803 16.351 87.153 17.287C87.1109 17.3785 87.0695 17.47 87.0281 17.5609C86.9121 17.8131 86.7976 18.0654 86.683 18.3183C86.645 18.4015 86.645 18.4015 86.6064 18.4873C86.5573 18.5953 86.5083 18.7034 86.4593 18.812C86.2909 19.1825 86.2909 19.1825 86.2143 19.253C86.0997 19.2587 85.9851 19.2606 85.8705 19.26C85.7974 19.26 85.7242 19.26 85.649 19.26C85.5689 19.26 85.4895 19.2593 85.4074 19.2593C85.3259 19.2593 85.2452 19.2587 85.1616 19.2587C84.9014 19.2587 84.6412 19.2581 84.3809 19.2568C84.2049 19.2568 84.0289 19.2562 83.8529 19.2562C83.4208 19.2555 82.988 19.2543 82.5559 19.253C82.3288 18.8457 82.121 18.4358 81.9339 18.012C81.9084 17.9555 81.8836 17.8989 81.8573 17.8411C81.8035 17.7197 81.749 17.5984 81.6951 17.477C81.5495 17.1485 81.4031 16.8206 81.2561 16.4927C81.2264 16.4254 81.1961 16.3587 81.1657 16.2894C80.8744 15.6375 80.579 14.9868 80.2821 14.3361C80.1793 14.1112 80.0771 13.8856 79.9743 13.6601C79.9356 13.5749 79.9356 13.5749 79.8963 13.4885C79.556 12.7412 79.2178 11.9927 78.8795 11.2442C78.4895 10.3832 78.0988 9.52222 77.7075 8.66251C77.3154 7.80215 76.9247 6.94243 76.5375 6.08081C76.4947 5.98613 76.4519 5.89082 76.4091 5.79614C76.3511 5.66715 76.2931 5.53753 76.2351 5.40854C76.2027 5.3361 76.1702 5.26366 76.1364 5.18932C76.0674 5.01966 76.0674 5.01966 76.0674 4.89258Z" fill="#4B6BFB"/>
<path d="M142.816 42.3177C142.896 42.3394 142.896 42.3394 142.979 42.3622C144.751 42.8591 144.751 42.8591 145.301 43.398C145.127 43.7207 144.953 44.0442 144.778 44.367C144.719 44.4763 144.66 44.5856 144.601 44.6948C144.189 45.4605 143.757 46.2129 143.299 46.9563C143.052 46.8222 142.824 46.6793 142.596 46.5191C141.835 46.0057 141.209 45.8024 140.262 45.8761C140.03 45.9453 139.817 46.0318 139.641 46.1938C139.603 46.5058 139.603 46.5058 139.756 46.7708C140.214 47.1202 140.873 47.2537 141.432 47.4157C142.521 47.7315 143.402 48.0962 144.265 48.799C144.314 48.8365 144.361 48.874 144.411 48.9127C145.225 49.5958 145.611 50.5712 145.702 51.5631C145.765 52.9623 145.414 54.3239 144.402 55.401C143.362 56.4176 141.839 56.9635 140.332 57.0207C140.097 57.0257 139.863 57.0257 139.627 57.0238C139.578 57.0232 139.529 57.0232 139.478 57.0232C138.656 57.0181 137.878 56.9552 137.087 56.7417C137.038 56.729 136.989 56.7163 136.94 56.7036C136.312 56.5358 135.734 56.2899 135.154 56.0148C135.094 55.9868 135.035 55.9589 134.974 55.9296C134.562 55.7276 134.201 55.4899 133.842 55.2167C133.928 54.9644 134.028 54.7338 134.161 54.5C134.197 54.4364 134.233 54.3735 134.27 54.3081C134.308 54.2407 134.346 54.174 134.386 54.1047C134.445 54.0005 134.445 54.0005 134.506 53.8938C135.511 52.1318 135.511 52.1318 135.913 51.5313C136.188 51.6368 136.391 51.8128 136.612 51.992C137.509 52.703 138.543 53.1726 139.761 53.1103C140.125 53.0506 140.364 52.9324 140.607 52.675C140.704 52.426 140.716 52.2474 140.596 52.0047C140.142 51.4481 139.051 51.2492 138.37 51.0408C137.024 50.629 135.754 50.0921 135.033 48.9C134.453 47.7931 134.394 46.3908 134.782 45.2172C135.112 44.4184 135.511 43.7951 136.189 43.2073C136.244 43.1597 136.298 43.112 136.355 43.0631C138.087 41.6772 140.743 41.7548 142.816 42.3177Z" fill="#4B6BFB"/>
<path d="M103.816 42.0665C105.543 42.0569 107.267 42.0817 108.993 42.13C109.188 42.4776 109.357 42.8258 109.509 43.1912C109.531 43.2426 109.552 43.2947 109.575 43.3481C109.622 43.4593 109.668 43.5699 109.714 43.6811C109.838 43.9753 109.962 44.2688 110.086 44.563C110.11 44.6215 110.135 44.6799 110.161 44.7409C110.402 45.3128 110.65 45.8828 110.899 46.4527C111.084 46.8778 111.268 47.3042 111.45 47.7306C111.47 47.7795 111.492 47.8284 111.513 47.8786C111.614 48.1163 111.715 48.3546 111.816 48.5928C111.853 48.678 111.889 48.7631 111.925 48.8489C111.957 48.9239 111.989 48.9995 112.022 49.077C112.082 49.2391 112.082 49.2391 112.168 49.3102C112.183 49.2753 112.199 49.2403 112.214 49.2041C112.584 48.3501 112.953 47.4961 113.322 46.6421C113.5 46.2297 113.679 45.8167 113.858 45.4037C114.03 45.0053 114.202 44.6069 114.375 44.2085C114.44 44.0566 114.506 43.9041 114.572 43.7522C114.664 43.5394 114.756 43.3265 114.848 43.1136C114.875 43.0507 114.903 42.9878 114.931 42.923C114.956 42.8646 114.981 42.8061 115.007 42.7464C115.029 42.6962 115.051 42.646 115.073 42.5939C115.14 42.4395 115.207 42.2844 115.274 42.13C117.006 42.13 118.737 42.13 120.52 42.13C120.287 42.7737 120.287 42.7737 120.146 43.0838C120.112 43.1549 120.08 43.2267 120.046 43.3004C120.01 43.3792 119.974 43.4574 119.938 43.5356C119.899 43.6213 119.86 43.7065 119.821 43.7916C119.408 44.6939 118.99 45.5949 118.572 46.496C118.178 47.35 117.784 48.2046 117.393 49.0599C116.87 50.2011 116.344 51.341 115.815 52.4797C115.473 53.2193 115.131 53.9596 114.793 54.7011C114.753 54.7869 114.753 54.7869 114.713 54.8752C114.592 55.1414 114.471 55.4077 114.35 55.6739C114.308 55.7654 114.266 55.8576 114.224 55.9497C114.206 55.991 114.187 56.0329 114.168 56.0755C114.039 56.3564 114.039 56.3564 113.963 56.4269C113.848 56.4326 113.734 56.4345 113.619 56.4339C113.546 56.4339 113.473 56.4339 113.397 56.4339C113.317 56.4339 113.238 56.4332 113.156 56.4332C113.074 56.4332 112.994 56.4326 112.91 56.4326C112.65 56.4326 112.39 56.432 112.129 56.4307C111.953 56.4307 111.777 56.4301 111.601 56.4301C111.169 56.4294 110.737 56.4282 110.304 56.4269C110.072 56.012 109.862 55.5939 109.669 55.163C109.643 55.1039 109.616 55.0449 109.589 54.9839C109.532 54.8574 109.475 54.7303 109.418 54.6039C109.265 54.2614 109.11 53.9195 108.956 53.5777C108.909 53.4722 108.909 53.4722 108.86 53.3654C108.548 52.6728 108.232 51.9821 107.915 51.2921C107.488 50.3644 107.064 49.4367 106.642 48.5083C106.616 48.4518 106.591 48.3959 106.565 48.3387C106.358 47.8837 106.152 47.4294 105.945 46.9751C105.785 46.6224 105.625 46.2697 105.465 45.9177C105.387 45.7462 105.31 45.5746 105.232 45.403C104.987 44.8636 104.74 44.3254 104.49 43.7891C104.443 43.6906 104.398 43.5921 104.352 43.4936C104.267 43.3119 104.182 43.1308 104.096 42.9497C104.059 42.869 104.021 42.7883 103.984 42.7082C103.951 42.639 103.919 42.5697 103.885 42.4986C103.816 42.3206 103.816 42.3206 103.816 42.0665Z" fill="#4B6BFB"/>
<path d="M115.473 42.1309C117.2 42.1214 118.923 42.1462 120.65 42.1945C120.844 42.542 121.013 42.8902 121.165 43.2556C121.187 43.3071 121.209 43.3592 121.232 43.4126C121.278 43.5238 121.325 43.6343 121.371 43.7455C121.495 44.0397 121.619 44.3333 121.742 44.6275C121.767 44.6859 121.792 44.7444 121.818 44.8054C122.059 45.3773 122.306 45.9472 122.555 46.5172C122.741 46.9423 122.925 47.3687 123.106 47.795C123.127 47.844 123.148 47.8929 123.17 47.9431C123.271 48.1807 123.372 48.419 123.473 48.6573C123.509 48.7424 123.545 48.8276 123.582 48.9134C123.614 48.9883 123.646 49.064 123.679 49.1415C123.739 49.3035 123.739 49.3035 123.825 49.3747C123.84 49.3397 123.855 49.3048 123.871 49.2686C124.24 48.4146 124.61 47.5606 124.979 46.7066C125.157 46.2942 125.336 45.8812 125.515 45.4681C125.687 45.0697 125.859 44.6713 126.032 44.2729C126.097 44.121 126.163 43.9685 126.229 43.8167C126.321 43.6038 126.413 43.391 126.505 43.1781C126.532 43.1152 126.56 43.0523 126.587 42.9875C126.613 42.929 126.638 42.8705 126.664 42.8108C126.685 42.7606 126.707 42.7104 126.729 42.6583C126.796 42.5039 126.864 42.3489 126.931 42.1945C128.662 42.1945 130.393 42.1945 132.177 42.1945C131.944 42.8381 131.944 42.8381 131.802 43.1482C131.769 43.2194 131.737 43.2912 131.703 43.3649C131.667 43.4437 131.631 43.5218 131.594 43.6C131.556 43.6858 131.516 43.7709 131.478 43.8561C131.064 44.7584 130.647 45.6594 130.229 46.5604C129.834 47.4144 129.441 48.269 129.049 49.1243C128.527 50.2655 128 51.4055 127.472 52.5441C127.13 53.2838 126.787 54.024 126.449 54.7655C126.41 54.8513 126.41 54.8513 126.37 54.9397C126.248 55.2059 126.128 55.4721 126.007 55.7384C125.965 55.8299 125.923 55.922 125.881 56.0141C125.863 56.0554 125.844 56.0974 125.825 56.14C125.696 56.4208 125.696 56.4208 125.62 56.4913C125.505 56.4971 125.39 56.499 125.276 56.4983C125.203 56.4983 125.129 56.4983 125.054 56.4983C124.974 56.4983 124.895 56.4977 124.813 56.4977C124.731 56.4977 124.65 56.4971 124.567 56.4971C124.307 56.4971 124.046 56.4964 123.786 56.4952C123.61 56.4952 123.434 56.4945 123.258 56.4945C122.826 56.4939 122.393 56.4926 121.961 56.4913C121.729 56.0764 121.519 55.6583 121.326 55.2275C121.3 55.1684 121.273 55.1093 121.246 55.0483C121.189 54.9219 121.132 54.7948 121.075 54.6683C120.922 54.3258 120.767 53.984 120.613 53.6421C120.565 53.5367 120.565 53.5367 120.517 53.4299C120.205 52.7373 119.888 52.0466 119.571 51.3565C119.145 50.4288 118.72 49.5011 118.299 48.5728C118.273 48.5162 118.248 48.4603 118.221 48.4031C118.015 47.9482 117.809 47.4938 117.602 47.0395C117.442 46.6869 117.282 46.3342 117.122 45.9822C117.044 45.8106 116.966 45.6391 116.888 45.4675C116.643 44.928 116.397 44.3898 116.146 43.8535C116.1 43.755 116.055 43.6566 116.009 43.5581C115.924 43.3763 115.838 43.1952 115.753 43.0142C115.716 42.9335 115.678 42.8528 115.64 42.7727C115.608 42.7034 115.575 42.6342 115.542 42.563C115.473 42.3851 115.473 42.3851 115.473 42.1309Z" fill="#4B6BFB"/>
<path d="M94.8423 4.89258C97.9174 4.89258 100.993 4.89258 104.161 4.89258C104.161 8.51445 104.161 8.51445 104.092 8.76862C102.634 8.76862 101.176 8.76862 99.6741 8.76862C99.6741 9.18799 99.6741 9.60737 99.6741 10.0395C101.758 10.0712 101.758 10.0712 103.885 10.103C103.885 11.3821 103.885 12.6612 103.885 13.979C102.472 13.979 101.06 13.979 99.6051 13.979C99.6051 14.4194 99.6051 14.8597 99.6051 15.3134C101.086 15.3134 102.566 15.3134 104.092 15.3134C104.092 16.6135 104.092 17.9135 104.092 19.253C101.039 19.253 97.9871 19.253 94.8423 19.253C94.8423 14.5141 94.8423 9.77512 94.8423 4.89258Z" fill="#4B6BFB"/>
<path d="M93.4619 42.0645C96.537 42.0645 99.6122 42.0645 102.78 42.0645C102.78 43.3435 102.78 44.6226 102.78 45.9405C101.277 45.9405 99.7737 45.9405 98.2247 45.9405C98.2247 46.3599 98.2247 46.7792 98.2247 47.2113C99.637 47.2113 101.049 47.2113 102.504 47.2113C102.504 48.5114 102.504 49.8115 102.504 51.1509C101.075 51.1566 99.6529 51.1401 98.2247 51.0874C98.2247 51.5487 98.2247 52.01 98.2247 52.4853C99.7054 52.4853 101.186 52.4853 102.711 52.4853C102.711 53.7644 102.711 55.0435 102.711 56.3613C99.6591 56.3613 96.6068 56.3613 93.4619 56.3613C93.4619 51.6434 93.4619 46.9254 93.4619 42.0645Z" fill="#4B6BFB"/>
<path d="M120.451 4.95545C121.186 4.91542 121.919 4.88492 122.654 4.86649C122.996 4.85759 123.337 4.84552 123.678 4.82582C125.945 4.69937 125.945 4.69937 126.49 5.11621C126.9 5.49301 127.145 5.96512 127.376 6.44677C127.568 6.81722 127.823 7.14192 128.079 7.47742C128.163 7.59243 128.247 7.70807 128.331 7.82372C128.429 7.96351 128.429 7.96351 128.527 8.06899C128.573 8.06899 128.618 8.06899 128.665 8.06899C128.784 7.92475 128.894 7.78051 129.002 7.62992C129.035 7.58417 129.068 7.53842 129.103 7.49139C129.211 7.34398 129.318 7.19593 129.425 7.04851C129.494 6.95256 129.565 6.85598 129.634 6.76003C129.767 6.57894 129.9 6.39721 130.031 6.21484C130.066 6.16973 130.1 6.12398 130.136 6.07696C130.231 5.94098 130.307 5.80881 130.385 5.66457C130.746 5.0317 130.746 5.0317 131.079 4.90334C131.475 4.82137 131.876 4.84616 132.279 4.86268C132.408 4.86395 132.537 4.86522 132.666 4.86649C133.004 4.8703 133.341 4.8792 133.679 4.89C134.024 4.89953 134.369 4.90398 134.714 4.90906C135.39 4.91923 136.066 4.93511 136.741 4.95545C136.688 5.04568 136.634 5.13591 136.581 5.22613C136.536 5.30175 136.536 5.30175 136.49 5.37863C136.349 5.6023 136.181 5.80373 136.008 6.0077C135.725 6.34892 135.451 6.69331 135.188 7.04851C134.827 7.53778 134.457 8.02197 134.085 8.50488C133.981 8.63959 133.878 8.7743 133.775 8.90901C133.423 9.37032 133.068 9.82909 132.708 10.2853C132.282 10.8254 131.871 11.3757 131.464 11.9291C131.357 12.0721 131.357 12.0721 131.181 12.2615C130.954 12.5569 130.963 12.8333 130.967 13.186C130.966 13.2514 130.965 13.3169 130.965 13.3849C130.963 13.6009 130.963 13.8176 130.963 14.0336C130.963 14.1842 130.961 14.3342 130.96 14.4848C130.958 14.88 130.957 15.2746 130.956 15.6698C130.956 16.1439 130.952 16.6185 130.949 17.0925C130.945 17.8125 130.945 18.5324 130.943 19.2523C129.371 19.2523 127.8 19.2523 126.18 19.2523C126.185 18.7726 126.188 18.2928 126.192 17.7985C126.193 17.4929 126.193 17.1879 126.193 16.8822C126.193 16.398 126.193 15.9138 126.198 15.4303C126.202 15.0395 126.203 14.6487 126.201 14.2586C126.2 14.1099 126.202 13.9618 126.205 13.8132C126.22 12.8156 126.1 12.2341 125.352 11.5002C125.28 11.4094 125.208 11.3172 125.141 11.2226C125.113 11.1857 125.086 11.1482 125.057 11.1101C125.031 11.0739 125.004 11.037 124.977 10.9995C124.718 10.6507 124.457 10.3044 124.192 9.95935C123.89 9.56667 123.589 9.17398 123.29 8.78002C123.25 8.72664 123.209 8.67327 123.167 8.61862C123.085 8.5106 123.003 8.40258 122.921 8.29456C122.679 7.97622 122.437 7.65787 122.195 7.34017C121.987 7.06567 121.779 6.7918 121.571 6.5173C121.528 6.46075 121.484 6.40356 121.44 6.34574C121.359 6.23772 121.277 6.13033 121.196 6.02295C120.98 5.73764 120.759 5.4587 120.526 5.18547C120.451 5.08253 120.451 5.08253 120.451 4.95545Z" fill="#4B6BFB"/>
<path d="M34.8583 20.7773C35.1033 20.8206 35.2938 20.9127 35.5106 21.0245C35.6231 21.0817 35.6231 21.0817 35.737 21.1402C35.8178 21.1821 35.8992 21.224 35.98 21.266C36.0642 21.3092 36.1484 21.3524 36.2326 21.3956C36.8338 21.7057 37.4302 22.0228 38.0245 22.3443C38.5132 22.6086 39.0047 22.8691 39.4983 23.1271C39.7419 23.2548 39.9849 23.3832 40.2286 23.5115C40.4267 23.6157 40.6255 23.72 40.8243 23.8235C41.0493 23.9404 41.2736 24.0586 41.498 24.1768C41.5642 24.2111 41.6305 24.2454 41.6988 24.2804C42.6693 24.7944 43.3561 25.5169 43.6716 26.519C43.9905 27.7904 43.5011 28.8268 42.8046 29.9076C42.0819 30.9599 41.1708 31.7097 39.8669 32.0839C38.1957 32.4144 36.8083 31.9727 35.4188 31.1556C34.9404 30.8671 34.5042 30.5539 34.099 30.1815C34.0272 30.1167 34.0272 30.1167 33.9534 30.05C32.8255 28.9609 32.3851 27.4702 32.421 25.9986C32.481 24.7652 33.0629 23.7238 33.7124 22.6722C33.9147 22.343 34.1135 22.0126 34.3123 21.6822C34.4269 21.4922 34.5415 21.3022 34.656 21.1122C34.6954 21.048 34.734 20.9832 34.7741 20.9165C34.8017 20.8708 34.83 20.825 34.8583 20.7773ZM40.212 27.3024C40.1167 27.4124 40.0256 27.5248 39.9359 27.6392C39.5694 28.105 39.1828 28.4519 38.5464 28.5593C37.8789 28.6343 37.4578 28.5453 36.8987 28.2041C36.5557 28.0008 36.3141 27.8896 35.904 27.9239C35.5527 28.0039 35.298 28.22 35.0654 28.4659C34.9349 28.8262 34.928 29.2138 35.0957 29.562C35.8336 30.2914 36.7952 30.6867 37.8672 30.7737C39.0806 30.8099 40.1885 30.4687 41.0969 29.717C41.6132 29.2703 42.2151 28.64 42.2441 27.9576C42.162 27.5757 42.0239 27.3202 41.6919 27.068C41.1846 26.7566 40.5978 26.911 40.212 27.3024Z" fill="#4B6BFB"/>
<path d="M5.72939 26.4961C6.1615 26.5298 6.57359 26.6162 6.99465 26.7102C7.13753 26.7414 7.28042 26.7731 7.42399 26.8043C7.49923 26.8208 7.57447 26.8373 7.65178 26.8538C10.8449 27.5503 14.0747 28.1367 17.3397 28.4608C17.4197 28.4684 17.4998 28.4767 17.5819 28.4849C17.7193 28.4977 17.8567 28.5097 17.994 28.5199C18.4883 28.5644 18.9721 28.7023 19.3242 29.0403C19.6879 29.4648 19.855 29.9159 19.7936 30.4592C19.6859 30.9821 19.3863 31.3443 18.9135 31.643C15.4815 33.2194 8.25093 30.7991 4.76302 29.9909C4.68295 29.7729 4.70642 29.6363 4.77406 29.4171C4.80236 29.3224 4.80236 29.3224 4.83205 29.2252C4.85275 29.1572 4.87415 29.0892 4.89624 29.0193C4.92799 28.9139 4.92799 28.9139 4.96112 28.8071C5.00599 28.6591 5.05224 28.5116 5.0978 28.3636C5.1682 28.1367 5.23792 27.9093 5.30764 27.6824C5.35182 27.5388 5.3953 27.3952 5.43948 27.2516C5.46088 27.1836 5.48158 27.115 5.50367 27.0445C5.523 26.9822 5.54233 26.9193 5.56304 26.8545C5.58858 26.7712 5.58858 26.7712 5.61481 26.6861C5.66036 26.5596 5.66036 26.5596 5.72939 26.4961Z" fill="#4B6BFB"/>
<path d="M37.2052 14.7422C37.4571 14.8197 37.5089 14.9023 37.667 15.0955C38.7811 16.4032 40.4315 17.2559 42.2179 17.4904C42.554 17.5272 42.8909 17.5495 43.2284 17.5711C43.3589 17.58 43.3589 17.58 43.4921 17.5882C43.5584 17.5927 43.6253 17.5971 43.6937 17.6016C43.869 18.1969 44.0443 18.7923 44.2197 19.3884C44.3004 19.6648 44.3819 19.9412 44.4633 20.2182C44.5427 20.4857 44.6214 20.7539 44.7001 21.0214C44.7298 21.123 44.7594 21.2241 44.7891 21.3251C44.9845 21.9885 45.1722 22.6531 45.3503 23.3203C45.2592 23.3413 45.1681 23.3623 45.0742 23.3839C45.0017 23.3089 45.0017 23.3089 44.9279 23.2326C44.2183 22.5063 43.5128 22.019 42.5892 21.5411C42.5237 21.5068 42.4581 21.4732 42.3898 21.4382C42.026 21.2495 41.6615 21.062 41.2964 20.8746C40.8477 20.6439 40.4004 20.4088 39.9545 20.1737C39.5707 19.971 39.1855 19.7702 38.8004 19.5707C38.1239 19.2206 37.4537 18.8629 36.791 18.4911C36.8366 17.6835 36.9353 16.8835 37.0368 16.0804C37.0533 15.9501 37.0699 15.8199 37.0858 15.6896C37.1251 15.3738 37.1651 15.058 37.2052 14.7422Z" fill="#4B6BFB"/>
<path d="M27.3389 17.1367C27.3872 17.1348 27.4356 17.1329 27.4853 17.131C28.2804 17.1227 28.9438 17.5116 29.6085 17.8712C29.6927 17.9164 29.7769 17.9615 29.8618 18.0066C30.0372 18.1 30.2118 18.194 30.3864 18.2874C30.7571 18.4863 31.1305 18.6814 31.5033 18.8771C31.7021 18.9813 31.9009 19.0862 32.099 19.1904C32.3889 19.3435 32.6788 19.4954 32.9687 19.6472C33.1371 19.7356 33.3056 19.8239 33.474 19.9128C33.592 19.9751 33.7108 20.0367 33.8295 20.099C33.9006 20.1365 33.971 20.1734 34.0442 20.2121C34.1063 20.2445 34.1691 20.2776 34.2333 20.3112C34.3755 20.397 34.3755 20.397 34.4445 20.5241C34.1926 20.5756 33.9496 20.601 33.6928 20.615C33.6114 20.6194 33.5299 20.6232 33.4457 20.6277C33.3567 20.6328 33.2683 20.6372 33.1765 20.6417C33.0819 20.6467 32.9867 20.6518 32.8921 20.6569C32.6339 20.6703 32.3765 20.6836 32.119 20.6969C31.9036 20.7077 31.6876 20.7192 31.4715 20.7306C30.9621 20.7573 30.452 20.7834 29.9426 20.8101C29.4187 20.8367 28.8948 20.8641 28.3709 20.8914C27.9201 20.9155 27.4687 20.9384 27.0179 20.9619C26.7487 20.9759 26.4802 20.9899 26.2117 21.0039C25.9584 21.0172 25.7044 21.0305 25.451 21.0432C25.3157 21.0502 25.1798 21.0572 25.0445 21.0649C24.4495 21.0947 23.8579 21.1011 23.2622 21.096C23.5887 20.5241 23.9242 19.9567 24.2672 19.3924C24.3038 19.3321 24.3404 19.2711 24.3777 19.2088C24.9485 18.276 25.4966 17.5421 26.6348 17.1793C26.8688 17.1431 27.1022 17.1399 27.3389 17.1367Z" fill="#4B6BFB"/>
<path d="M37.8954 9.27734C37.9824 9.33707 38.0694 9.3968 38.1557 9.45653C38.204 9.48957 38.2523 9.52261 38.3027 9.55693C38.4366 9.65097 38.5671 9.74755 38.6975 9.84541C39.4768 10.3779 40.3997 10.6886 41.3633 10.7737C41.4248 10.7788 41.4862 10.7846 41.5497 10.7903C41.5967 10.7941 41.6436 10.7979 41.6919 10.8023C41.8721 11.3704 42.0522 11.9391 42.2317 12.5072C42.3152 12.7715 42.3987 13.0352 42.483 13.2989C42.5637 13.5537 42.6438 13.8085 42.7245 14.0627C42.7549 14.1605 42.786 14.2571 42.817 14.3543C42.8598 14.4903 42.9026 14.6263 42.9454 14.7629C42.9827 14.8785 42.9827 14.8785 43.02 14.9974C43.0724 15.1867 43.0724 15.1867 43.0724 15.3773C41.2798 15.3271 39.6977 14.5704 38.4477 13.4076C38.2889 13.2468 38.1577 13.0835 38.0335 12.8992C37.99 12.8357 37.9465 12.7721 37.9017 12.7067C37.386 11.8991 37.5738 11.2027 37.7229 10.3182C37.7394 10.2165 37.756 10.1155 37.7726 10.0144C37.8133 9.76852 37.854 9.52261 37.8954 9.27734Z" fill="#4B6BFB"/>
<path d="M39.095 -0.015625C39.3449 0.000260418 39.3449 0.000260418 39.4588 0.075875C39.5782 0.222656 39.6038 0.340208 39.6403 0.520031C39.6541 0.588021 39.6686 0.656011 39.6831 0.726542C39.6976 0.801521 39.7128 0.875865 39.728 0.953386C39.7439 1.03154 39.7604 1.11033 39.777 1.19167C39.8212 1.40771 39.8647 1.62375 39.9082 1.83979C39.953 2.06664 39.9993 2.29284 40.0455 2.51905C40.1228 2.89903 40.1994 3.27901 40.2761 3.65899C40.3637 4.0987 40.4528 4.53777 40.5425 4.97621C40.6378 5.44388 40.7323 5.91218 40.8269 6.37984C40.8538 6.51455 40.8814 6.64863 40.9084 6.78333C40.9594 7.03496 41.0098 7.28595 41.0602 7.53757C41.0754 7.61192 41.0906 7.68626 41.1065 7.76251C41.1265 7.86608 41.1265 7.86608 41.1472 7.97093C41.1596 8.03002 41.1713 8.08975 41.1838 8.15075C41.2107 8.33756 41.2134 8.51739 41.2086 8.70547C40.0165 8.42906 38.91 8.03638 38.2522 7.02543C38.0672 6.65117 38.1052 6.28834 38.1431 5.88994C38.1487 5.83212 38.1535 5.77366 38.159 5.71329C38.1763 5.5214 38.1942 5.3295 38.2122 5.13697C38.2239 5.00353 38.2363 4.86946 38.2488 4.73539C38.2736 4.45517 38.2998 4.17495 38.3261 3.89473C38.3592 3.53572 38.3916 3.17671 38.4241 2.8177C38.4489 2.54129 38.4745 2.26489 38.5 1.98848C38.5124 1.85631 38.5242 1.72415 38.5359 1.59134C38.5525 1.40644 38.5697 1.22153 38.5877 1.03663C38.5925 0.981979 38.5973 0.927333 38.6022 0.871417C38.6857 0.0123333 38.6857 0.0123333 39.095 -0.015625Z" fill="#4B6BFB"/>
</g>
<defs>
<clipPath id="clip0_146_1657">
<rect width="195" height="61" fill="white"/>
</clipPath>
</defs>
</svg>
